<svg width="298" height="46" viewBox="0 0 298 46" fill="none" xmlns="http://www.w3.org/2000/svg">
<path d="M3.5 23H114" stroke="white" stroke-width="4" stroke-linecap="round"/>
<path d="M147.119 7.19623C147.756 5.43708 150.244 5.43707 150.881 7.19623L153.612 14.7439C153.891 15.513 154.609 16.0351 155.427 16.0622L163.449 16.3278C165.319 16.3897 166.088 18.7558 164.611 19.9049L158.277 24.8353C157.632 25.3377 157.357 26.1824 157.584 26.9683L159.811 34.6801C160.33 36.4775 158.317 37.9399 156.768 36.8909L150.121 32.3903C149.444 31.9317 148.556 31.9317 147.879 32.3903L141.232 36.8909C139.683 37.9399 137.67 36.4775 138.189 34.6801L140.416 26.9683C140.643 26.1825 140.368 25.3377 139.723 24.8353L133.389 19.9049C131.912 18.7558 132.681 16.3897 134.551 16.3278L142.573 16.0622C143.391 16.0351 144.109 15.513 144.388 14.7439L147.119 7.19623Z" fill="white"/>
<path d="M184 23H294.5" stroke="white" stroke-width="4" stroke-linecap="round"/>
</svg>
